<?xml version="1.0" standalone="no"?>
<!DOCTYPE svg PUBLIC "-//W3C//DTD SVG 20010904//EN"
 "http://www.w3.org/TR/2001/REC-SVG-20010904/DTD/svg10.dtd">
<svg version="1.0" xmlns="http://www.w3.org/2000/svg"
 width="512.000000pt" height="512.000000pt" viewBox="0 0 512.000000 512.000000"
 preserveAspectRatio="xMidYMid meet">
<metadata>
Created by potrace 1.14, written by Peter Selinger 2001-2017
</metadata>
<g transform="translate(0.000000,512.000000) scale(0.100000,-0.100000)"
fill="#000000" stroke="none">
<path d="M1420 5102 l-25 -20 -3 -261 -3 -261 -32 -1 c-94 -1 -164 -7 -179
-13 -25 -11 -41 -58 -29 -87 21 -56 -82 -52 1569 -54 1087 -1 1534 -4 1553
-12 45 -20 87 -63 104 -106 14 -38 15 -205 13 -1728 l-3 -1687 -37 -54 c-44
-63 -47 -96 -15 -126 49 -46 108 -18 165 78 37 63 42 111 43 369 l1 251 263 0
c292 0 298 1 311 67 5 26 1 37 -19 57 -28 28 -28 28 -449 27 l-107 0 2 197 2
197 265 1 264 2 23 26 c30 35 29 71 -2 101 l-24 25 -265 0 -265 0 0 185 c0
102 2 191 5 198 3 9 63 12 252 12 136 -1 259 3 274 8 15 5 31 21 38 38 16 39
-2 84 -38 96 -15 5 -140 9 -279 8 l-252 0 0 197 0 198 255 1 c140 1 257 2 262
3 67 15 80 105 20 137 -14 8 -105 11 -279 12 l-258 0 0 197 0 197 265 2 c239
2 267 3 285 19 29 28 34 73 11 102 l-20 25 -270 3 -271 3 0 257 c1 258 -6 324
-37 385 -30 57 -102 123 -167 153 l-62 28 -260 2 c-143 2 -266 3 -272 3 -10 1
-13 58 -13 250 0 137 -3 257 -6 266 -7 18 -55 45 -79 45 -9 0 -27 -11 -40 -25
l-25 -24 0 -256 0 -255 -22 -1 c-110 -3 -358 0 -365 4 -6 4 -10 110 -10 250 0
169 -4 250 -12 266 -15 27 -57 44 -88 36 -47 -11 -53 -44 -53 -310 0 -226 -1
-245 -17 -246 -85 -3 -363 0 -370 4 -4 3 -8 113 -8 244 1 131 -3 250 -8 265
-10 31 -53 52 -90 43 -48 -12 -54 -46 -52 -305 1 -129 0 -239 -2 -245 -2 -8
-325 -13 -385 -6 -5 1 -8 115 -8 254 0 223 -2 255 -18 274 -27 35 -73 40 -106
11 l-28 -24 0 -252 c0 -149 -4 -255 -10 -258 -8 -5 -296 -9 -370 -5 -17 1 -18
20 -18 255 0 227 -2 256 -17 275 -26 31 -73 37 -103 13z"/>
<path d="M859 4550 c-64 -11 -137 -51 -184 -102 -88 -95 -96 -132 -96 -460 l0
-258 -265 0 -265 0 -24 -26 c-14 -15 -25 -38 -25 -51 0 -37 42 -73 87 -73 21
-1 139 -2 263 -3 l225 -2 1 -196 1 -197 -257 0 c-172 0 -264 -4 -278 -11 -51
-27 -52 -100 -2 -126 23 -12 78 -15 284 -15 l256 0 -1 -195 c0 -141 -4 -195
-12 -196 -7 -1 -120 -3 -252 -4 -132 -1 -248 -3 -258 -4 -20 -1 -49 -33 -54
-58 -4 -29 17 -72 41 -80 11 -4 136 -7 276 -8 l255 0 2 -198 3 -197 -264 0
c-237 0 -266 -2 -285 -17 -33 -28 -37 -75 -9 -107 l24 -28 264 -1 265 -2 2
-198 1 -197 -258 1 c-175 1 -264 -2 -278 -10 -30 -16 -44 -47 -37 -82 13 -57
24 -59 312 -59 l262 0 0 -141 c0 -133 1 -143 22 -165 30 -32 73 -31 104 1 l25
24 0 1573 0 1574 23 44 c27 55 87 97 147 105 71 9 112 71 77 116 -13 17 -51
40 -64 38 -4 -1 -29 -5 -54 -9z"/>
<path d="M1443 3815 c-61 -28 -98 -65 -126 -125 -20 -45 -20 -57 -20 -1115 0
-1058 0 -1071 20 -1115 26 -56 61 -93 116 -123 l42 -22 1085 0 1085 0 41 22
c56 30 111 93 125 145 9 32 12 313 12 1103 0 1044 0 1061 -20 1105 -24 54 -69
101 -121 126 -35 18 -87 19 -1113 21 l-1076 2 -50 -24z m1654 -521 c0 -279 -3
-394 -11 -394 -29 0 -120 -53 -160 -93 -44 -45 -96 -132 -96 -162 0 -16 -2
-16 -105 -16 -36 0 -153 0 -260 0 l-195 1 0 195 c0 169 2 195 15 195 31 0 112
49 149 90 74 82 98 177 72 280 -58 226 -326 312 -500 160 -40 -36 -96 -124
-96 -152 0 -10 -8 -18 -17 -19 -20 -1 -411 -1 -430 0 -16 1 -18 233 -3 261 27
50 11 49 851 48 l786 -1 0 -393z m518 382 c62 -26 56 75 56 -1018 l-1 -718
-513 0 -514 0 1 268 1 267 88 1 c74 2 89 -1 93 -15 3 -9 16 -39 31 -68 85
-174 300 -246 473 -158 161 81 233 261 176 437 -26 81 -105 166 -188 203 -35
15 -65 29 -67 31 -2 2 -4 525 -1 745 l0 36 166 1 c122 1 174 -2 199 -12z
m-1319 -228 c90 -62 91 -196 2 -260 -44 -31 -134 -33 -174 -2 -52 38 -69 71
-69 132 0 45 5 64 25 91 50 67 148 85 216 39z m-361 -268 c31 -61 80 -111 136
-138 l46 -22 0 -233 c0 -128 3 -244 6 -258 11 -44 43 -52 212 -53 l155 0 0
-48 c1 -26 1 -239 1 -473 0 -234 0 -440 -1 -458 l0 -33 -250 0 -250 0 -1 36
c-1 128 1 253 6 258 3 3 14 7 25 9 42 6 111 47 146 85 88 98 104 229 42 343
-112 203 -412 197 -514 -11 -58 -119 -38 -246 53 -337 26 -26 50 -47 54 -47 4
0 14 -6 21 -14 11 -10 14 -49 14 -167 l-1 -154 -150 -1 c-159 -1 -205 8 -224
44 -10 18 -13 449 -11 1618 l0 100 231 1 230 0 24 -47z m1310 -435 c42 -16 86
-58 109 -103 68 -136 -30 -292 -183 -292 -82 0 -147 41 -186 119 -25 49 -17
147 14 193 55 79 160 115 246 83z m-1185 -602 c30 -33 34 -50 31 -107 -5 -97
-124 -158 -208 -106 -142 86 -53 297 110 257 22 -6 49 -23 67 -44z m1611 -487
c-2 -147 -11 -171 -70 -185 -20 -4 -243 -8 -496 -7 l-460 1 -1 163 0 162 514
-2 514 -3 -1 -129z"/>
<path d="M625 885 c-43 -42 -29 -97 43 -177 20 -22 53 -51 72 -63 72 -45 101
-49 380 -51 l265 -1 5 -276 c5 -303 5 -300 67 -313 26 -5 37 -1 57 19 l26 26
0 271 c0 148 3 270 8 271 24 3 369 4 378 1 8 -2 12 -83 12 -275 l0 -271 27
-23 c32 -28 62 -29 95 -3 l25 19 5 277 5 278 183 -1 c100 -1 188 -2 195 -2 10
-1 12 -58 12 -258 -1 -142 3 -271 8 -286 15 -46 77 -59 117 -24 24 20 22 -3
24 304 0 138 4 255 9 259 4 4 93 8 197 8 l190 1 1 -262 c1 -145 3 -267 4 -273
1 -5 3 -14 4 -20 1 -12 54 -40 75 -40 8 0 27 11 42 23 l27 24 0 271 c0 193 3
272 11 273 6 0 94 1 196 2 l185 1 5 -277 c5 -302 5 -301 66 -313 21 -4 37 0
54 14 l25 20 5 278 5 278 198 0 199 1 23 27 c28 32 25 72 -6 103 -19 20 -36
20 -1647 20 l-1627 1 -42 22 c-25 13 -54 40 -70 65 -52 81 -94 97 -138 52z"/>
</g>
</svg>
